<mxfile host="app.diagrams.net" modified="2021-07-01T06:39:59.541Z" agent="5.0 (Windows NT 10.0; Win64; x64) AppleWebKit/537.36 (KHTML, like Gecko) Chrome/89.0.4389.114 Safari/537.36" etag="35rEtKe-n_EWMj57hOcz" version="14.8.2" type="github">
  <diagram id="W4XkekFSRtAK2CpeRQHF" name="Page-1">
    <mxGraphModel dx="1038" dy="548" grid="1" gridSize="10" guides="1" tooltips="1" connect="1" arrows="1" fold="1" page="1" pageScale="1" pageWidth="827" pageHeight="1169" math="0" shadow="0">
      <root>
        <mxCell id="0" />
        <mxCell id="1" parent="0" />
        <mxCell id="MP94j85Y15ngQk_uyJ-D-1" value="start" style="ellipse;whiteSpace=wrap;html=1;" vertex="1" parent="1">
          <mxGeometry x="354" y="40" width="120" height="80" as="geometry" />
        </mxCell>
        <mxCell id="MP94j85Y15ngQk_uyJ-D-2" value="post" style="rounded=0;whiteSpace=wrap;html=1;" vertex="1" parent="1">
          <mxGeometry x="360" y="160" width="120" height="60" as="geometry" />
        </mxCell>
        <mxCell id="MP94j85Y15ngQk_uyJ-D-3" value="DefaultServerRequest# DefalutServerRequest(ServerWebExchange exchange)" style="rounded=0;whiteSpace=wrap;html=1;" vertex="1" parent="1">
          <mxGeometry x="280" y="280" width="320" height="60" as="geometry" />
        </mxCell>
        <mxCell id="MP94j85Y15ngQk_uyJ-D-4" value="HttpMessageReader&amp;lt;T&amp;gt;&lt;br&gt;interface" style="rounded=0;whiteSpace=wrap;html=1;" vertex="1" parent="1">
          <mxGeometry x="354" y="400" width="176" height="60" as="geometry" />
        </mxCell>
      </root>
    </mxGraphModel>
  </diagram>
</mxfile>
